# Blender v2.92.0 OBJ File: 'terrain.blend'
# www.blender.org
mtllib terrain2.mtl
o 실린더.001_실린더.003
v 0.000000 1.097607 -82.412697
v 16.077919 1.097607 -80.829155
v 16.077900 1.097607 80.829163
v -0.000027 1.097607 82.412697
v -0.666234 3.508186 -0.101367
v 1.875319 3.972565 7.188135
v 1.365357 2.834090 -7.663901
v 5.276530 3.994118 2.617633
v 7.466141 3.999710 -2.667572
v 8.833575 2.715117 -10.352023
v 12.273678 4.068357 2.728853
v 9.106159 4.117921 10.726702
v 6.424500 5.128595 15.614961
v 17.522568 2.204751 9.086153
v 18.878384 2.845844 0.794122
v 15.135780 4.045765 -3.252075
v 18.261393 3.262002 -9.203135
v 11.268320 4.092675 -15.469938
v 18.792034 3.423825 -16.461834
v 14.603838 4.505683 -21.876026
v 13.607961 1.663457 16.361435
v -0.956156 3.943575 14.901814
v 7.270860 4.273545 22.082388
v -2.998590 3.902853 20.703632
v 0.527686 4.022104 27.546898
v 3.552673 4.140900 -15.722380
v 15.503451 1.559032 24.458630
v 9.994650 2.473525 32.055557
v 18.012585 3.576831 40.423630
v 9.774207 5.321737 60.007572
v 2.291866 1.723736 36.707432
v 9.519644 3.193163 43.137760
v -1.705727 3.878362 44.945137
v 5.413442 4.121950 53.211369
v 14.794532 4.222226 52.476288
v 20.897495 4.337677 59.135281
v 15.207854 4.134196 65.732231
v 4.649982 4.181334 66.726952
v -3.390990 3.313460 72.313614
v 11.151009 3.143938 75.826981
v 9.989902 3.476461 70.856400
v 4.627849 2.820419 75.463120
v -0.269307 4.068022 61.865108
v 5.579183 4.776055 -23.995817
v 13.846942 4.182923 -32.257599
v -4.735593 2.676609 -72.986855
v 10.759235 2.893502 -69.231468
v 0.418547 2.776302 -62.359089
v 12.951103 3.064711 -56.849365
v 2.930830 3.946505 -50.938412
v 15.382835 3.293947 -44.286270
v 0.593496 4.127901 -42.928558
v 7.588405 3.326708 -38.562965
v 2.991607 3.989136 -32.173050
v 15.384978 2.768753 72.602249
v 8.834987 1.097607 81.542526
v 0.039494 2.267319 -82.377289
v 16.117413 2.267319 -80.793747
v 16.117393 2.267319 80.864571
v 0.039467 2.267319 82.448105
v -0.626740 4.677898 -0.065957
v 1.914813 5.142277 7.223544
v 1.404851 4.003802 -7.628492
v 5.316024 5.163831 2.653043
v 7.505635 5.169422 -2.632163
v 8.873070 3.884829 -10.316613
v 12.313172 5.238069 2.764262
v 9.145654 5.287633 10.762112
v 6.463995 6.298307 15.650371
v 17.562061 3.374463 9.121563
v 18.917877 4.015556 0.829532
v 15.175275 5.215477 -3.216665
v 18.300886 4.431714 -9.167726
v 11.307815 5.262387 -15.434528
v 18.831528 4.593537 -16.426424
v 14.643332 5.675395 -21.840616
v 13.647455 2.833169 16.396845
v -0.916662 5.113287 14.937224
v 7.310354 5.443257 22.117798
v -2.959096 5.072566 20.739042
v 0.567180 5.191816 27.582308
v 3.592167 5.310612 -15.686970
v 15.542946 2.728745 24.494040
v 10.034144 3.643237 32.090965
v 18.052078 4.746543 40.459038
v 9.813702 6.491449 60.042980
v 2.331360 2.893448 36.742840
v 9.559138 4.362875 43.173168
v -1.666233 5.048074 44.980545
v 5.452936 5.291663 53.246777
v 14.834026 5.391938 52.511696
v 20.936989 5.507389 59.170689
v 15.247349 5.303908 65.767639
v 4.689476 5.351046 66.762360
v -3.351496 4.483172 72.349022
v 11.190503 4.313651 75.862389
v 10.029396 4.646173 70.891808
v 4.667343 3.990131 75.498528
v -0.229813 5.237734 61.900517
v 5.618677 5.945767 -23.960407
v 13.886436 5.352635 -32.222191
v -4.696099 3.846321 -72.951447
v 10.798730 4.063214 -69.196060
v 0.458042 3.946014 -62.323681
v 12.990598 4.234423 -56.813957
v 2.970324 5.116218 -50.903004
v 15.422330 4.463659 -44.250862
v 0.632990 5.297614 -42.893150
v 7.627899 4.496420 -38.527557
v 3.031101 5.158848 -32.137642
v 15.424473 3.938465 72.637657
v 8.874481 2.267319 81.577934
vt 0.264689 0.243299
vt 0.255183 0.230415
vt 0.249770 0.247781
vt 0.255170 0.267363
vt 0.272238 0.257637
vt 0.273318 0.269686
vt 0.280086 0.240500
vt 0.285912 0.242115
vt 0.272976 0.228310
vt 0.299882 0.236901
vt 0.307224 0.237955
vt 0.293656 0.258522
vt 0.296489 0.272651
vt 0.282366 0.286158
vt 0.306430 0.290143
vt 0.292482 0.308839
vt 0.291104 0.226165
vt 0.256127 0.215112
vt 0.274175 0.208377
vt 0.250687 0.196379
vt 0.275768 0.186821
vt 0.263181 0.284012
vt 0.297134 0.200481
vt 0.283069 0.172080
vt 0.305391 0.142691
vt 0.282809 0.132585
vt 0.276276 0.084316
vt 0.269776 0.098387
vt 0.295826 0.099604
vt 0.254581 0.083871
vt 0.261873 0.152916
vt 0.249864 0.124640
vt 0.313211 0.085074
vt 0.295461 0.061498
vt 0.266163 0.056949
vt 0.272716 0.030091
vt 0.296082 0.040080
vt 0.296822 0.014612
vt 0.272520 0.030893
vt 0.250000 0.010000
vt 0.272130 0.030372
vt 0.275729 0.012534
vt 0.240451 0.045372
vt 0.275841 0.311945
vt 0.292162 0.339502
vt 0.258231 0.356029
vt 0.295183 0.379367
vt 0.257661 0.355858
vt 0.257486 0.356409
vt 0.256409 0.389368
vt 0.264689 0.243299
vt 0.249770 0.247781
vt 0.255183 0.230415
vt 0.272238 0.257637
vt 0.255170 0.267363
vt 0.273318 0.269686
vt 0.280086 0.240500
vt 0.285912 0.242115
vt 0.272976 0.228310
vt 0.299882 0.236901
vt 0.307224 0.237955
vt 0.293656 0.258522
vt 0.296489 0.272651
vt 0.282366 0.286158
vt 0.306430 0.290143
vt 0.292482 0.308839
vt 0.291104 0.226165
vt 0.256127 0.215112
vt 0.250687 0.196379
vt 0.274175 0.208377
vt 0.275768 0.186821
vt 0.263181 0.284012
vt 0.283069 0.172080
vt 0.297134 0.200481
vt 0.305391 0.142691
vt 0.282809 0.132585
vt 0.276276 0.084316
vt 0.295826 0.099604
vt 0.269776 0.098387
vt 0.254581 0.083871
vt 0.261873 0.152916
vt 0.249864 0.124640
vt 0.313211 0.085074
vt 0.295461 0.061498
vt 0.266163 0.056949
vt 0.272716 0.030091
vt 0.296822 0.014612
vt 0.296082 0.040080
vt 0.272520 0.030893
vt 0.250000 0.010000
vt 0.275729 0.012534
vt 0.272130 0.030372
vt 0.240451 0.045372
vt 0.275841 0.311945
vt 0.292162 0.339502
vt 0.295183 0.379367
vt 0.258231 0.356029
vt 0.257486 0.356409
vt 0.257661 0.355858
vt 0.250000 0.490000
vt 0.284763 0.448694
vt 0.296822 0.485388
vt 0.238673 0.457552
vt 0.253216 0.424524
vt 0.256409 0.389368
vt 0.289169 0.411172
vt 0.289169 0.411172
vt 0.296822 0.485388
vt 0.250000 0.490000
vt 0.238673 0.457552
vt 0.284763 0.448694
vt 0.253216 0.424524
vn 0.0624 -0.9972 0.0418
vn 0.0957 -0.9889 0.1139
vn 0.0690 -0.9972 0.0275
vn 0.0465 -0.9839 0.1727
vn 0.0104 -0.9999 0.0103
vn 0.0106 -0.9999 0.0033
vn -0.0629 -0.9836 0.1689
vn -0.2371 -0.9675 -0.0879
vn -0.2119 -0.9711 -0.1097
vn 0.0065 -1.0000 0.0069
vn 0.0834 -0.9715 -0.2218
vn -0.0923 -0.9953 -0.0289
vn -0.1033 -0.9877 -0.1175
vn 0.0187 -0.9856 0.1681
vn 0.0390 -0.9878 0.1506
vn -0.2083 -0.9733 -0.0960
vn -0.2551 -0.9444 -0.2075
vn -0.4298 -0.9016 -0.0494
vn 0.0164 -0.9998 0.0075
vn 0.0353 -0.9994 0.0054
vn 0.1709 -0.9736 -0.1511
vn 0.1534 -0.9868 0.0526
vn 0.0362 -0.9993 -0.0013
vn 0.0024 -0.9659 -0.2588
vn -0.0807 -0.9802 -0.1809
vn -0.2873 -0.9533 -0.0936
vn -0.3293 -0.9420 0.0649
vn -0.4283 -0.9014 -0.0631
vn 0.0665 -0.9955 0.0675
vn 0.0230 -0.9869 0.1594
vn 0.1389 -0.9866 0.0851
vn -0.0471 -0.9710 -0.2345
vn -0.0878 -0.9842 -0.1537
vn -0.0199 -0.9696 0.2439
vn 0.1385 -0.9879 0.0701
vn -0.0493 -0.9962 0.0718
vn 0.0184 -0.9949 0.0992
vn -0.0807 -0.9926 0.0911
vn 0.0678 -0.9951 0.0714
vn -0.0964 -0.9888 -0.1136
vn -0.0217 -0.9828 -0.1833
vn 0.1077 -0.9905 -0.0859
vn -0.2194 -0.9595 -0.1764
vn -0.0181 -0.9892 -0.1454
vn -0.0252 -0.9663 -0.2563
vn 0.0538 -0.9954 -0.0792
vn -0.0114 -0.9880 -0.1539
vn 0.0277 -0.9744 -0.2231
vn 0.0726 -0.9961 -0.0502
vn -0.0132 -0.9974 -0.0712
vn -0.0037 -0.9970 -0.0774
vn -0.0379 -0.9987 0.0338
vn 0.0550 -0.9952 0.0806
vn -0.1228 -0.9923 0.0146
vn 0.0185 -0.9958 0.0900
vn -0.0557 -0.9984 0.0064
vn 0.0186 -0.9930 0.1164
vn -0.0635 -0.9947 -0.0808
vn 0.0645 -0.9475 -0.3131
vn -0.0344 -0.9364 -0.3492
vn -0.0660 -0.9790 -0.1929
vn -0.0003 -0.9881 -0.1539
vn -0.1176 -0.9923 -0.0389
vn -0.0624 0.9972 -0.0418
vn -0.0957 0.9889 -0.1139
vn -0.0690 0.9972 -0.0275
vn -0.0465 0.9839 -0.1727
vn -0.0104 0.9999 -0.0103
vn -0.0106 0.9999 -0.0033
vn 0.0629 0.9836 -0.1689
vn 0.2371 0.9675 0.0879
vn 0.2119 0.9711 0.1097
vn -0.0065 1.0000 -0.0069
vn -0.0834 0.9715 0.2218
vn 0.0923 0.9953 0.0289
vn 0.1033 0.9877 0.1175
vn -0.0187 0.9856 -0.1681
vn -0.0390 0.9878 -0.1506
vn 0.2083 0.9733 0.0960
vn 0.2551 0.9444 0.2075
vn 0.4298 0.9016 0.0494
vn -0.0164 0.9998 -0.0075
vn -0.0353 0.9994 -0.0054
vn -0.1709 0.9736 0.1511
vn -0.1534 0.9868 -0.0526
vn -0.0362 0.9993 0.0013
vn -0.0024 0.9659 0.2588
vn 0.0807 0.9802 0.1809
vn 0.2873 0.9533 0.0936
vn 0.3293 0.9420 -0.0649
vn 0.4283 0.9014 0.0631
vn -0.0665 0.9955 -0.0675
vn -0.0230 0.9869 -0.1594
vn -0.1389 0.9866 -0.0851
vn 0.0471 0.9710 0.2345
vn 0.0878 0.9842 0.1537
vn 0.0199 0.9696 -0.2439
vn -0.1385 0.9879 -0.0701
vn 0.0493 0.9962 -0.0718
vn -0.0184 0.9949 -0.0992
vn 0.0807 0.9926 -0.0911
vn -0.0678 0.9951 -0.0714
vn 0.0964 0.9888 0.1136
vn 0.0217 0.9828 0.1833
vn -0.1077 0.9905 0.0859
vn 0.2194 0.9595 0.1764
vn 0.0181 0.9892 0.1454
vn 0.0252 0.9663 0.2563
vn -0.0538 0.9954 0.0792
vn 0.0114 0.9880 0.1539
vn -0.0277 0.9744 0.2231
vn -0.0726 0.9961 0.0502
vn 0.0132 0.9974 0.0712
vn 0.0037 0.9970 0.0774
vn 0.0379 0.9987 -0.0338
vn -0.0550 0.9952 -0.0806
vn 0.1228 0.9923 -0.0146
vn -0.0185 0.9958 -0.0900
vn 0.0144 0.9891 -0.1465
vn 0.0234 0.9878 -0.1537
vn -0.0133 0.9999 -0.0029
vn 0.0242 0.9939 -0.1072
vn -0.0184 0.9998 -0.0106
vn 0.0557 0.9984 -0.0064
vn 0.0691 0.9971 -0.0316
vn -0.0186 0.9930 -0.1164
vn 0.0635 0.9947 0.0808
vn -0.0645 0.9475 0.3131
vn 0.0344 0.9364 0.3492
vn 0.0660 0.9790 0.1929
vn 0.0003 0.9881 0.1539
vn 0.1176 0.9923 0.0389
vn 0.0980 -0.0334 0.9946
vn 0.8061 -0.0451 0.5900
vn 0.9815 -0.0274 -0.1895
vn 0.0980 0.0268 -0.9948
vn 0.9968 -0.0358 0.0721
vn -0.9589 0.0409 -0.2807
vn 0.9969 -0.0315 -0.0717
vn 0.7223 -0.0035 -0.6916
vn -0.9425 0.0419 -0.3315
vn 0.9648 -0.0404 0.2598
vn -0.8897 0.0438 -0.4543
vn -0.9463 0.0222 0.3226
vn 0.9909 -0.0374 0.1293
vn -0.9445 0.0220 0.3279
vn 0.7902 -0.0081 -0.6129
vn -0.9803 0.0272 0.1956
vn 0.7372 -0.0044 -0.6756
vn -0.9641 0.0405 -0.2626
vn 0.9056 -0.0433 0.4220
vn 0.8821 -0.0440 0.4691
vn -0.9538 0.0231 0.2996
vn -0.8889 0.0162 0.4578
vn 0.7572 -0.0453 0.6516
vn -0.9756 0.0263 0.2179
vn -0.9659 0.0404 -0.2556
vn -0.8997 0.0172 0.4362
vn 0.7335 -0.0042 -0.6797
vn 0.9866 -0.0381 0.1584
vn 0.9989 -0.0328 -0.0323
vn -0.8943 0.0437 -0.4454
vn -0.8352 0.0448 -0.5482
vn 0.9844 -0.0280 -0.1739
vn 0.8811 -0.0440 0.4708
vn 0.9733 -0.0260 -0.2282
vn -0.9582 0.0409 -0.2833
vn -0.9769 0.0266 0.2122
vn -0.7578 0.0058 0.6525
vn -0.9712 0.0399 -0.2348
vn 0.9955 -0.0309 -0.0901
vn -0.9380 0.0421 -0.3441
vn -0.0164 -0.9966 0.0812
usemtl None
s off
f 8/1/1 6/2/1 5/3/1
f 5/3/2 7/4/2 9/5/2
f 8/1/3 5/3/3 9/5/3
f 9/5/4 7/4/4 10/6/4
f 12/7/5 8/1/5 11/8/5
f 8/1/6 9/5/6 11/8/6
f 13/9/7 6/2/7 12/7/7
f 14/10/8 12/7/8 11/8/8
f 11/8/9 15/11/9 14/10/9
f 11/8/10 9/5/10 16/12/10
f 17/13/11 10/6/11 18/14/11
f 17/13/12 18/14/12 19/15/12
f 19/15/13 18/14/13 20/16/13
f 16/12/14 9/5/14 10/6/14
f 10/6/15 17/13/15 16/12/15
f 16/12/16 15/11/16 11/8/16
f 21/17/17 12/7/17 14/10/17
f 12/7/18 21/17/18 13/9/18
f 6/2/19 8/1/19 12/7/19
f 22/18/20 23/19/20 24/20/20
f 22/18/21 13/9/21 23/19/21
f 22/18/22 6/2/22 13/9/22
f 24/20/23 23/19/23 25/21/23
f 18/14/24 10/6/24 26/22/24
f 10/6/25 7/4/25 26/22/25
f 23/19/26 27/23/26 28/24/26
f 23/19/27 21/17/27 27/23/27
f 21/17/28 23/19/28 13/9/28
f 29/25/29 32/26/29 28/24/29
f 30/27/30 34/28/30 35/29/30
f 30/27/31 43/30/31 34/28/31
f 25/21/32 28/24/32 31/31/32
f 25/21/33 23/19/33 28/24/33
f 31/31/34 32/26/34 33/32/34
f 31/31/35 28/24/35 32/26/35
f 33/32/36 32/26/36 34/28/36
f 32/26/37 35/29/37 34/28/37
f 35/29/38 36/33/38 30/27/38
f 35/29/39 32/26/39 29/25/39
f 36/33/40 37/34/40 30/27/40
f 37/34/41 38/35/41 30/27/41
f 38/35/42 43/30/42 30/27/42
f 40/36/43 55/37/43 3/38/43
f 41/39/44 38/35/44 37/34/44
f 4/40/45 42/41/45 56/42/45
f 42/41/46 41/39/46 40/36/46
f 41/39/47 42/41/47 38/35/47
f 42/41/48 4/40/48 39/43/48
f 39/43/49 43/30/49 38/35/49
f 20/16/50 18/14/50 44/44/50
f 18/14/51 26/22/51 44/44/51
f 20/16/52 44/44/52 45/45/52
f 45/45/53 53/46/53 51/47/53
f 53/46/54 54/48/54 52/49/54
f 44/44/55 54/48/55 45/45/55
f 50/50/56 51/47/56 52/49/56
f 54/48/57 53/46/57 45/45/57
f 53/46/58 52/49/58 51/47/58
f 42/41/59 40/36/59 56/42/59
f 40/36/60 3/38/60 56/42/60
f 55/37/61 41/39/61 37/34/61
f 42/41/62 39/43/62 38/35/62
f 41/39/63 55/37/63 40/36/63
f 64/51/64 61/52/64 62/53/64
f 61/52/65 65/54/65 63/55/65
f 64/51/66 65/54/66 61/52/66
f 65/54/67 66/56/67 63/55/67
f 68/57/68 67/58/68 64/51/68
f 64/51/69 67/58/69 65/54/69
f 69/59/70 68/57/70 62/53/70
f 70/60/71 67/58/71 68/57/71
f 67/58/72 70/60/72 71/61/72
f 67/58/73 72/62/73 65/54/73
f 73/63/74 74/64/74 66/56/74
f 73/63/75 75/65/75 74/64/75
f 75/65/76 76/66/76 74/64/76
f 72/62/77 66/56/77 65/54/77
f 66/56/78 72/62/78 73/63/78
f 72/62/79 67/58/79 71/61/79
f 77/67/80 70/60/80 68/57/80
f 68/57/81 69/59/81 77/67/81
f 62/53/82 68/57/82 64/51/82
f 78/68/83 80/69/83 79/70/83
f 78/68/84 79/70/84 69/59/84
f 78/68/85 69/59/85 62/53/85
f 80/69/86 81/71/86 79/70/86
f 74/64/87 82/72/87 66/56/87
f 66/56/88 82/72/88 63/55/88
f 79/70/89 84/73/89 83/74/89
f 79/70/90 83/74/90 77/67/90
f 77/67/91 69/59/91 79/70/91
f 85/75/92 84/73/92 88/76/92
f 86/77/93 91/78/93 90/79/93
f 86/77/94 90/79/94 99/80/94
f 81/71/95 87/81/95 84/73/95
f 81/71/96 84/73/96 79/70/96
f 87/81/97 89/82/97 88/76/97
f 87/81/98 88/76/98 84/73/98
f 89/82/99 90/79/99 88/76/99
f 88/76/100 90/79/100 91/78/100
f 91/78/101 86/77/101 92/83/101
f 91/78/102 85/75/102 88/76/102
f 92/83/103 86/77/103 93/84/103
f 93/84/104 86/77/104 94/85/104
f 94/85/105 86/77/105 99/80/105
f 96/86/106 59/87/106 111/88/106
f 97/89/107 93/84/107 94/85/107
f 60/90/108 112/91/108 98/92/108
f 98/92/109 96/86/109 97/89/109
f 97/89/110 94/85/110 98/92/110
f 98/92/111 95/93/111 60/90/111
f 95/93/112 94/85/112 99/80/112
f 76/66/113 100/94/113 74/64/113
f 74/64/114 100/94/114 82/72/114
f 76/66/115 101/95/115 100/94/115
f 101/95/116 107/96/116 109/97/116
f 109/97/117 108/98/117 110/99/117
f 100/94/118 101/95/118 110/99/118
f 57/100/119 103/101/119 58/102/119
f 57/100/120 102/103/120 103/101/120
f 102/103/121 104/104/121 103/101/121
f 104/104/122 106/105/122 105/106/122
f 104/104/123 105/106/123 103/101/123
f 106/105/124 108/98/124 107/96/124
f 106/105/125 107/96/125 105/106/125
f 110/99/126 101/95/126 109/97/126
f 109/97/127 107/96/127 108/98/127
f 98/92/128 112/91/128 96/86/128
f 96/86/129 112/91/129 59/87/129
f 111/88/130 93/84/130 97/89/130
f 98/92/131 94/85/131 95/93/131
f 97/89/132 96/86/132 111/88/132
f 4/40/133 56/42/133 112/91/133 60/90/133
f 28/24/134 27/23/134 83/74/134 84/73/134
f 51/47/135 49/107/135 105/106/135 107/96/135
f 2/108/136 1/109/136 57/100/136 58/102/136
f 17/13/137 19/15/137 75/65/137 73/63/137
f 50/50/138 52/49/138 108/98/138 106/105/138
f 20/16/139 45/45/139 101/95/139 76/66/139
f 29/25/140 28/24/140 84/73/140 85/75/140
f 22/18/141 24/20/141 80/69/141 78/68/141
f 35/29/142 29/25/142 85/75/142 91/78/142
f 56/42/133 3/38/133 59/87/133 112/91/133
f 1/109/143 46/110/143 102/103/143 57/100/143
f 39/43/144 4/40/144 60/90/144 95/93/144
f 45/45/145 51/47/145 107/96/145 101/95/145
f 5/3/146 6/2/146 62/53/146 61/52/146
f 19/15/147 20/16/147 76/66/147 75/65/147
f 25/21/148 31/31/148 87/81/148 81/71/148
f 36/33/149 35/29/149 91/78/149 92/83/149
f 7/4/150 5/3/150 61/52/150 63/55/150
f 47/111/151 2/108/151 58/102/151 103/101/151
f 16/12/152 17/13/152 73/63/152 72/62/152
f 54/48/153 44/44/153 100/94/153 110/99/153
f 24/20/154 25/21/154 81/71/154 80/69/154
f 37/34/155 36/33/155 92/83/155 93/84/155
f 52/49/156 54/48/156 110/99/156 108/98/156
f 26/22/157 7/4/157 63/55/157 82/72/157
f 46/110/158 48/112/158 104/104/158 102/103/158
f 15/11/159 16/12/159 72/62/159 71/61/159
f 14/10/160 15/11/160 71/61/160 70/60/160
f 55/37/161 37/34/161 93/84/161 111/88/161
f 31/31/162 33/32/162 89/82/162 87/81/162
f 34/28/163 43/30/163 99/80/163 90/79/163
f 49/107/164 47/111/164 103/101/164 105/106/164
f 21/17/165 14/10/165 70/60/165 77/67/165
f 27/23/166 21/17/166 77/67/166 83/74/166
f 43/30/167 39/43/167 95/93/167 99/80/167
f 48/112/168 50/50/168 106/105/168 104/104/168
f 33/32/169 34/28/169 90/79/169 89/82/169
f 44/44/170 26/22/170 82/72/170 100/94/170
f 3/38/171 55/37/171 111/88/171 59/87/171
f 6/2/172 22/18/172 78/68/172 62/53/172
f 1/109/173 2/108/173 47/111/173 49/107/173 51/47/173 50/50/173 48/112/173 46/110/173
